<?xml version="1.0" standalone="no"?>
<!DOCTYPE svg PUBLIC "-//W3C//DTD SVG 20010904//EN"
 "http://www.w3.org/TR/2001/REC-SVG-20010904/DTD/svg10.dtd">
<svg version="1.0" xmlns="http://www.w3.org/2000/svg"
 width="500.000000pt" height="230.000000pt" viewBox="0 0 500.000000 230.000000"
 preserveAspectRatio="xMidYMid meet">

<g transform="translate(0.000000,360.000000) scale(0.100000,-0.100000)"
fill="#000000" stroke="none">
<path d="M3222 3487 c-90 -126 -207 -230 -272 -243 -16 -4 -30 -13 -30 -20 0
-19 167 -244 180 -244 22 0 137 64 193 107 94 72 190 212 170 246 -9 16 -72
96 -100 127 -13 14 -23 28 -23 32 0 9 -50 68 -59 68 -4 0 -30 -33 -59 -73z
m128 -72 c30 -38 57 -71 62 -73 32 -14 -21 -111 -101 -184 -56 -52 -174 -128
-198 -128 -10 0 -132 156 -133 171 0 3 15 12 33 21 50 24 153 123 215 206 30
41 57 70 61 65 4 -4 32 -39 61 -78z"/>
<path d="M3256 3411 c-8 -12 36 -61 54 -61 17 0 11 15 -19 44 -18 17 -31 24
-35 17z"/>
<path d="M3227 3353 c-6 -6 78 -104 95 -111 18 -8 6 25 -20 53 -39 44 -68 66
-75 58z"/>
<path d="M3166 3312 c-7 -11 61 -78 70 -69 7 6 -45 75 -58 76 -4 1 -9 -3 -12
-7z"/>
<path d="M3100 3246 c0 -3 25 -30 56 -60 59 -60 64 -63 64 -43 0 16 -91 107
-108 107 -7 0 -12 -2 -12 -4z"/>
<path d="M3040 3205 c0 -12 61 -67 67 -61 9 9 -31 60 -51 64 -9 2 -16 1 -16
-3z"/>
<path d="M252 3384 c-22 -15 -29 -49 -14 -70 11 -18 48 -34 76 -34 25 0 26 -3
26 -52 0 -65 24 -169 51 -223 13 -24 43 -57 80 -83 32 -24 59 -48 59 -52 0 -5
-28 -30 -61 -56 -86 -66 -118 -144 -132 -319 -3 -37 -5 -40 -39 -46 -46 -7
-68 -25 -68 -55 0 -27 22 -52 53 -59 12 -3 174 -5 360 -3 322 3 339 4 353 22
32 45 6 92 -55 98 -33 3 -34 4 -38 58 -11 159 -42 234 -122 296 -34 26 -61 54
-61 63 0 9 25 34 55 56 82 59 105 114 130 308 5 38 10 47 26 47 23 0 61 18 71
34 13 20 8 53 -10 69 -17 15 -57 17 -368 17 -300 0 -353 -2 -372 -16z m716
-41 c3 -10 -71 -13 -347 -13 -193 0 -351 4 -351 8 0 5 3 12 7 15 4 4 160 6
346 5 262 -2 341 -6 345 -15z m-103 -100 c-2 -21 -7 -59 -10 -85 l-6 -47 -52
-10 c-124 -25 -177 -29 -241 -20 -91 12 -147 26 -158 37 -5 5 -12 44 -15 86
l-6 76 247 0 246 0 -5 -37z m-302 -203 c53 -6 109 -2 217 15 l45 8 -29 -31
c-16 -17 -57 -48 -92 -68 -35 -20 -66 -45 -70 -56 -8 -25 -17 -23 -41 11 -12
15 -50 45 -86 66 -35 20 -69 46 -76 57 -12 19 -11 20 31 13 24 -4 69 -11 101
-15z m3 -384 c-8 -13 -46 -39 -85 -60 -39 -20 -73 -41 -76 -47 -10 -15 -26 1
-21 19 2 10 10 43 16 75 13 65 48 113 112 154 22 13 44 36 51 50 11 24 12 15
15 -71 2 -73 -1 -104 -12 -120z m124 175 c0 -3 25 -24 55 -45 35 -25 62 -55
75 -81 19 -40 46 -153 38 -161 -8 -7 -143 65 -170 91 -27 25 -28 29 -28 133 1
96 2 105 15 88 8 -11 15 -22 15 -25z m-60 -185 c0 -20 53 -62 123 -98 60 -30
96 -62 97 -85 0 -10 -52 -13 -230 -13 -126 0 -230 3 -230 8 0 27 45 71 104
102 66 34 116 74 116 91 0 5 5 9 10 9 6 0 10 -6 10 -14z m335 -256 c0 -13 -45
-15 -335 -17 -184 -2 -341 1 -349 6 -7 5 -10 14 -7 20 5 8 104 11 349 9 296
-3 342 -5 342 -18z"/>
<path d="M2395 3317 c-2 -6 -6 -73 -8 -147 -6 -150 -26 -234 -71 -292 -20 -28
-24 -38 -14 -45 20 -16 269 -95 283 -90 20 8 84 148 105 232 22 87 24 158 7
224 l-12 43 -115 33 c-63 18 -128 38 -143 44 -21 8 -29 8 -32 -2z m146 -77
c55 -16 104 -32 109 -35 16 -10 22 -105 10 -172 -13 -79 -68 -222 -91 -236
-10 -6 -41 -1 -100 17 -116 36 -115 35 -90 84 27 52 51 193 51 293 0 44 2 79
5 79 3 0 51 -13 106 -30z"/>
<path d="M2470 3172 c0 -12 58 -27 67 -18 9 9 0 15 -35 22 -20 4 -32 2 -32 -4z"/>
<path d="M2472 3098 c6 -18 120 -60 132 -48 6 6 2 12 -10 16 -10 4 -41 15 -67
26 -56 21 -60 22 -55 6z"/>
<path d="M2460 3024 c0 -13 50 -34 81 -34 35 0 19 15 -31 31 -38 12 -50 12
-50 3z"/>
<path d="M2446 2961 c-3 -5 22 -19 57 -32 34 -13 65 -25 70 -27 4 -2 7 3 7 11
0 8 -24 23 -56 36 -62 23 -70 25 -78 12z"/>
<path d="M2420 2891 c0 -9 83 -41 108 -41 31 0 2 25 -44 37 -59 15 -64 16 -64
4z"/>
<path d="M1870 3230 c-17 -17 -20 -29 -15 -58 5 -34 2 -40 -42 -84 -42 -41
-53 -47 -89 -46 -23 0 -50 -4 -60 -10 -27 -15 -124 22 -152 58 -28 35 -59 38
-90 10 -27 -26 -28 -64 -2 -90 26 -26 58 -25 86 1 22 21 24 21 71 4 l48 -17
-2 -55 c-2 -69 -37 -113 -90 -113 -55 0 -87 -45 -63 -90 38 -71 137 -27 117
51 -4 15 3 31 23 52 27 29 31 30 65 20 25 -8 47 -8 72 -1 35 10 39 8 71 -27
27 -30 32 -41 27 -65 -5 -23 -1 -35 19 -55 29 -29 56 -32 84 -7 51 43 22 112
-46 112 -30 0 -43 7 -74 41 -32 35 -36 44 -28 65 7 18 6 35 -4 59 l-14 34 50
50 c28 28 59 51 69 51 33 0 69 23 76 49 16 63 -61 107 -107 61z m78 -48 c-2
-23 -8 -27 -33 -27 -24 0 -31 5 -33 24 -5 32 23 54 50 40 13 -7 18 -19 16 -37z
m-452 -116 c8 -33 -2 -46 -35 -46 -32 0 -49 34 -29 57 18 23 57 16 64 -11z
m259 -71 c14 -13 25 -33 25 -45 0 -27 -43 -70 -70 -70 -25 0 -70 42 -70 65 0
38 36 72 78 74 7 1 24 -10 37 -24z m-200 -230 c0 -27 -3 -30 -30 -30 -21 0
-31 5 -33 18 -6 33 6 49 35 45 24 -3 28 -8 28 -33z m390 5 c4 -12 1 -27 -5
-35 -27 -33 -78 -5 -65 35 4 14 15 20 35 20 20 0 31 -6 35 -20z"/>
<path d="M2875 2868 c-22 -42 -38 -58 -77 -77 -59 -30 -59 -45 2 -81 27 -16
54 -43 70 -70 36 -61 54 -62 83 -5 17 35 36 53 73 73 27 15 49 34 49 42 0 8
-20 26 -45 39 -32 17 -55 39 -75 74 -17 28 -35 52 -41 54 -6 2 -24 -20 -39
-49z m60 -47 c8 -17 28 -38 45 -48 37 -22 37 -27 1 -43 -16 -6 -35 -25 -41
-41 -18 -43 -26 -43 -49 -4 -11 19 -32 40 -46 45 -34 13 -32 24 10 49 19 11
35 26 35 34 0 11 19 37 27 37 1 0 9 -13 18 -29z"/>
<path d="M2377 2619 c-21 -11 -80 -34 -130 -52 -81 -28 -105 -32 -194 -32
l-103 1 1 -31 c0 -16 6 -84 12 -150 l12 -119 40 -9 c54 -12 228 -1 288 17 58
19 141 62 163 87 14 16 15 28 5 101 -6 46 -15 110 -19 143 -8 68 -17 73 -75
44z m49 -149 c8 -62 13 -114 12 -115 -25 -20 -95 -56 -138 -70 -40 -14 -86
-19 -170 -19 l-114 -1 -7 40 c-3 22 -9 73 -12 113 l-6 72 63 0 c67 0 194 32
294 74 31 13 58 23 60 21 2 -1 10 -53 18 -115z"/>
<path d="M2304 2449 c8 -80 14 -99 28 -99 6 0 7 11 4 25 -3 13 -9 52 -13 85
-3 33 -10 60 -16 60 -6 0 -7 -26 -3 -71z"/>
<path d="M2360 2503 c0 -20 17 -50 24 -43 2 3 2 17 -1 33 -6 30 -23 37 -23 10z"/>
<path d="M2240 2441 c0 -33 5 -63 11 -66 15 -10 15 -7 11 63 -5 79 -22 81 -22
3z"/>
<path d="M2174 2433 c3 -26 11 -52 17 -58 9 -7 10 1 5 30 -3 22 -6 48 -6 58 0
9 -5 17 -11 17 -8 0 -10 -15 -5 -47z"/>
<path d="M2104 2435 c17 -103 29 -146 37 -138 10 10 -18 154 -33 168 -7 7 -8
-2 -4 -30z"/>
<path d="M2033 2415 c2 -26 7 -49 11 -52 12 -13 16 5 10 50 -9 61 -28 62 -21
2z"/>
<path d="M1354 2585 c-23 -14 -70 -31 -105 -39 -34 -8 -72 -24 -83 -35 -19
-20 -19 -25 -7 -113 7 -51 15 -107 18 -125 6 -35 44 -80 81 -94 12 -5 22 -17
22 -27 0 -15 -10 -21 -40 -26 -31 -5 -45 -14 -60 -39 -19 -30 -20 -51 -20
-377 0 -304 2 -348 16 -369 16 -22 16 -25 0 -51 -22 -38 -20 -82 4 -113 11
-14 20 -27 20 -30 0 -3 -45 -7 -99 -9 -107 -3 -132 -13 -175 -72 -20 -26 -21
-40 -21 -369 0 -297 2 -342 15 -342 13 0 15 41 18 302 l2 303 270 0 270 0 2
-302 c3 -279 4 -303 21 -306 16 -3 17 18 17 333 0 368 0 368 -60 419 -41 34
-31 37 106 34 l109 -3 2 -380 c1 -209 2 -386 3 -392 0 -10 37 -13 150 -13 175
0 182 5 95 71 l-55 41 0 405 0 405 -31 29 -31 29 -178 0 c-162 0 -210 7 -180
25 6 4 10 89 10 230 0 204 6 256 25 225 4 -6 30 -29 58 -52 l52 -40 -3 -58
c-6 -92 -15 -90 354 -90 l312 0 6 -32 c45 -254 52 -608 18 -958 -11 -118 -18
-218 -16 -222 7 -10 181 -11 187 0 3 4 -6 120 -19 257 -13 138 -24 311 -24
385 0 117 33 521 45 558 3 9 78 12 329 12 l325 0 20 26 c30 38 28 94 -4 124
-22 21 -23 24 -8 35 24 18 9 43 -29 47 -30 3 -33 6 -33 38 0 32 2 35 34 38 22
2 35 9 38 22 3 10 15 20 27 22 34 5 28 42 -9 48 -58 10 -57 115 2 122 20 2 28
9 28 23 0 16 -8 21 -40 23 -24 2 -44 11 -52 22 -7 10 -26 20 -41 22 -24 3 -27
7 -27 38 0 32 3 35 31 38 22 2 34 9 37 23 3 11 14 19 25 19 25 0 34 12 26 34
-4 10 -18 16 -41 16 -30 0 -34 3 -31 23 2 16 11 23 33 25 35 4 49 21 33 39
-13 16 -392 19 -432 3 -37 -14 -52 -51 -39 -95 10 -32 9 -36 -10 -47 -33 -17
-46 -39 -47 -79 0 -54 31 -89 82 -89 28 0 38 -4 34 -12 -30 -75 -30 -101 0
-175 3 -8 -1 -13 -11 -13 -9 0 -27 -12 -40 -26 -37 -39 -34 -91 6 -132 l32
-32 -339 2 -339 3 3 23 c4 29 -21 59 -57 67 -24 5 -31 15 -51 81 -13 41 -28
78 -33 81 -19 12 -19 -10 2 -75 11 -37 21 -71 21 -75 0 -4 -63 -7 -139 -7
l-140 0 -85 71 c-77 63 -86 74 -86 104 0 19 -5 45 -11 58 -12 28 -58 57 -88
57 -33 0 -26 34 12 60 19 13 45 39 58 59 13 20 35 45 48 56 l23 21 -22 44
c-19 37 -21 53 -16 114 5 60 3 74 -12 92 -29 34 -53 36 -98 9z m60 -51 c15
-39 -78 -113 -128 -100 -24 6 -49 -9 -59 -36 -7 -22 -17 -4 -23 45 l-7 47 34
2 c19 1 44 1 57 0 12 0 20 3 17 8 -7 12 32 23 47 14 7 -4 9 -3 5 1 -4 5 3 15
15 22 30 16 35 16 42 -3z m6 -114 c0 -12 7 -34 15 -51 15 -28 15 -32 -7 -60
-46 -61 -86 -99 -107 -99 -18 0 -21 6 -21 44 0 28 -7 52 -18 66 -30 37 -17 67
29 73 21 3 51 14 66 26 35 26 43 26 43 1z m1600 -45 l0 -25 -155 0 c-133 0
-157 2 -162 16 -10 28 18 34 170 34 l147 0 0 -25z m-1791 -12 c0 -27 6 -50 18
-64 17 -22 25 -57 13 -64 -13 -8 -35 43 -45 103 -4 26 -3 42 3 42 6 0 11 -8
11 -17z m1741 -143 l0 -40 -155 0 c-169 0 -174 2 -161 55 l6 25 155 0 155 0 0
-40z m-1570 -150 c11 -11 20 -24 20 -30 0 -17 -26 -11 -45 10 -36 39 -105 10
-105 -44 0 -28 8 -38 90 -102 l60 -47 0 -243 0 -243 -27 -21 c-24 -19 -38 -21
-97 -18 -53 3 -71 8 -82 23 -11 15 -14 85 -14 361 l0 343 22 15 c35 25 152 22
178 -4z m1655 12 c6 -4 10 -31 11 -59 l1 -53 -146 0 c-80 0 -151 4 -157 8 -28
19 -25 97 4 105 29 8 277 7 287 -1z m-1640 -132 c89 -68 130 -108 120 -118 -3
-3 -9 -2 -13 3 -4 6 -47 43 -97 84 -115 95 -111 91 -99 91 5 0 45 -27 89 -60z
m1599 -110 l0 -35 -156 -3 c-150 -2 -157 -2 -163 18 -3 11 -3 29 0 40 6 20 13
20 163 18 l156 -3 0 -35z m-1423 -27 c38 -28 69 -44 69 -36 0 10 262 9 277 0
6 -4 13 -2 15 5 3 7 10 8 17 4 29 -18 -19 -26 -165 -26 -149 0 -221 11 -207
33 4 6 0 8 -10 4 -10 -4 -16 -2 -14 6 1 7 -4 11 -10 10 -7 -2 -13 2 -13 7 0
15 14 12 41 -7z m1507 -122 c8 -5 12 -22 10 -42 l-3 -34 -735 0 -735 0 -3 28
c-7 61 -58 57 730 57 398 0 729 -4 736 -9z m-691 -178 c-4 -32 -13 -134 -22
-228 -9 -93 -20 -192 -24 -220 l-8 -50 -2 60 c0 34 -10 148 -21 255 -27 263
-30 240 31 240 l52 0 -6 -57z m-593 -256 c3 -12 6 -191 6 -398 l0 -377 -45 -4
-45 -3 0 346 c0 265 -3 349 -12 357 -8 6 -104 10 -248 10 -212 1 -236 2 -247
18 -16 22 -16 34 1 56 12 16 40 18 277 20 145 2 274 1 286 0 11 -2 24 -14 27
-25z m-394 -172 c30 -15 65 -67 53 -79 -8 -8 -518 -8 -526 0 -11 11 22 63 51
78 40 22 380 23 422 1z m950 -157 c0 -35 9 -160 20 -278 26 -289 30 -260 -30
-260 l-50 0 0 38 c0 20 9 132 20 247 11 116 20 234 20 263 0 28 5 52 10 52 6
0 10 -28 10 -62z m-499 -518 l24 -19 -87 -1 c-81 0 -88 1 -88 20 0 18 7 20 64
20 49 0 69 -5 87 -20z"/>
<path d="M295 1981 l-80 -28 -11 -45 c-7 -25 -15 -68 -19 -95 l-6 -50 58 -53
59 -53 -19 -96 -20 -95 59 -54 c83 -75 80 -74 160 -46 38 13 76 24 84 24 8 0
43 -25 78 -56 l63 -56 47 12 c26 8 67 23 91 34 l44 21 18 90 c18 88 18 90 0
105 -10 8 -43 36 -73 62 l-55 48 -74 -25 c-41 -14 -83 -23 -94 -21 -11 3 -40
24 -64 46 l-45 41 19 97 18 96 -68 63 c-37 35 -72 63 -79 62 -6 0 -47 -13 -91
-28z m151 -51 c33 -28 53 -53 53 -67 1 -34 -21 -127 -33 -139 -6 -6 -40 -21
-76 -32 l-64 -20 -36 28 c-81 64 -83 70 -70 149 6 38 17 74 23 79 16 13 130
52 141 49 5 -2 33 -23 62 -47z m82 -299 c57 -52 57 -55 40 -147 l-11 -63 -76
-26 -75 -25 -55 49 c-54 47 -56 51 -54 94 2 24 8 61 15 82 12 35 19 40 78 61
36 12 70 23 75 23 6 0 34 -21 63 -48z m308 -71 l52 -49 -17 -77 -16 -77 -69
-24 c-39 -12 -73 -23 -76 -23 -3 0 -32 23 -64 51 -63 56 -60 46 -35 161 10 46
12 48 67 67 86 30 100 27 158 -29z"/>
<path d="M303 1933 c-39 -13 -58 -33 -33 -33 28 0 100 26 104 37 7 17 -17 16
-71 -4z"/>
<path d="M447 1856 c-13 -33 -19 -106 -9 -106 16 0 20 11 28 68 4 33 3 52 -4
52 -5 0 -12 -6 -15 -14z"/>
<path d="M236 1803 c-8 -9 64 -83 81 -83 23 0 14 17 -27 54 -44 39 -44 39 -54
29z"/>
<path d="M383 1633 c-44 -15 -57 -33 -26 -33 25 0 103 31 103 41 0 13 -28 10
-77 -8z"/>
<path d="M521 1519 c-11 -50 -8 -74 9 -64 4 3 11 22 14 42 4 21 9 46 12 56 3
11 0 17 -9 17 -10 0 -19 -17 -26 -51z"/>
<path d="M320 1498 c0 -13 69 -78 82 -78 16 0 7 17 -30 53 -40 39 -52 45 -52
25z"/>
<path d="M720 1583 c-66 -24 -83 -34 -73 -44 12 -12 105 21 111 40 4 11 -12
13 -38 4z"/>
<path d="M835 1498 c-24 -73 -26 -108 -5 -108 7 0 30 83 30 110 0 14 -20 12
-25 -2z"/>
<path d="M620 1431 c0 -5 19 -25 42 -45 55 -48 75 -32 21 18 -37 34 -63 46
-63 27z"/>
<path d="M3280 1265 c-16 -31 -38 -53 -69 -72 -73 -42 -73 -55 -1 -88 29 -13
48 -32 70 -71 17 -30 35 -54 40 -54 5 0 23 24 40 53 22 38 42 59 77 77 25 14
48 30 50 37 2 6 -19 24 -47 39 -38 20 -57 40 -77 76 -33 61 -53 61 -83 3z m62
-50 c6 -14 27 -34 47 -46 l36 -22 -32 -15 c-17 -8 -40 -30 -49 -48 -10 -19
-21 -34 -25 -34 -3 0 -14 15 -24 34 -10 19 -32 41 -49 49 l-31 14 36 22 c20
12 41 32 47 46 6 14 16 25 22 25 6 0 16 -11 22 -25z"/>
<path d="M2622 1014 c-45 -31 -10 -111 43 -98 21 5 32 -1 64 -37 29 -33 37
-48 30 -61 -14 -25 -11 -57 8 -88 14 -25 15 -34 3 -75 -7 -26 -20 -49 -29 -52
-31 -11 -51 -36 -51 -65 0 -33 31 -68 60 -68 22 0 70 41 70 60 0 15 -21 53
-33 61 -6 4 -4 23 5 50 13 39 17 43 49 44 35 2 36 0 91 -106 56 -108 56 -108
37 -130 -27 -32 -34 -66 -21 -113 11 -40 10 -42 -29 -82 -35 -36 -48 -42 -95
-47 -48 -5 -61 -2 -99 21 -36 22 -44 33 -47 61 -2 23 -12 41 -30 54 -24 18
-30 18 -57 7 -38 -15 -50 -53 -30 -89 13 -22 22 -26 60 -26 28 0 62 -10 97
-28 45 -24 51 -31 46 -51 -8 -33 21 -84 51 -92 64 -16 118 39 95 97 -11 26 -9
32 26 74 30 37 42 45 58 40 50 -17 87 -17 111 -1 29 19 32 18 97 -37 40 -34
46 -42 38 -62 -12 -32 17 -86 53 -98 21 -7 34 -5 53 8 79 52 34 157 -61 141
-25 -4 -38 2 -83 43 -50 45 -52 49 -41 78 8 24 7 39 -6 68 -8 21 -14 40 -12
42 2 2 36 14 75 27 61 21 73 22 89 10 31 -23 79 -17 102 12 12 15 21 37 21 49
0 38 -37 75 -75 75 -34 0 -74 -29 -76 -57 -1 -7 -2 -19 -3 -25 -2 -24 -116
-62 -193 -64 l-72 -2 -55 108 -54 107 19 29 c10 16 19 37 19 46 0 10 11 19 30
22 17 3 43 8 58 11 20 4 33 0 47 -15 38 -42 108 -12 108 47 0 30 -34 63 -65
63 -11 0 -34 -15 -52 -34 -24 -26 -42 -36 -79 -41 -44 -7 -51 -5 -77 20 -28
27 -83 37 -110 20 -18 -11 -90 64 -90 95 0 31 -8 44 -37 59 -27 14 -24 14 -51
-5z m53 -45 c0 -28 -32 -39 -41 -15 -9 24 2 45 23 42 12 -2 18 -11 18 -27z
m475 -120 c14 -26 -3 -49 -36 -49 -28 0 -38 14 -30 46 8 31 50 33 66 3z m-253
-21 c7 -6 13 -28 13 -49 0 -46 -34 -75 -74 -65 -59 15 -73 69 -30 112 19 20
31 24 52 19 15 -4 33 -11 39 -17z m501 -270 c2 -15 -5 -31 -18 -43 -20 -18
-24 -18 -48 -4 -20 11 -27 23 -27 44 0 61 86 64 93 3z m-613 1 c4 -5 4 -21 1
-35 -5 -17 -13 -24 -30 -24 -33 0 -50 23 -36 49 11 22 54 29 65 10z m324 -125
c40 -33 42 -79 6 -118 -51 -55 -145 -22 -145 51 0 85 75 121 139 67z m-475
-110 c21 -8 20 -51 -1 -63 -24 -13 -53 4 -53 33 0 35 17 44 54 30z m715 -138
c21 -25 9 -69 -21 -80 -50 -17 -89 42 -52 78 19 20 58 21 73 2z m-468 -27 c17
-33 -3 -69 -39 -69 -33 0 -52 16 -52 45 0 29 19 45 52 45 18 0 31 -7 39 -21z"/>
<path d="M3110 846 c0 -2 7 -7 16 -10 8 -3 12 -2 9 4 -6 10 -25 14 -25 6z"/>
<path d="M2872 800 c7 -10 14 -18 15 -16 6 6 -9 36 -18 36 -5 0 -4 -9 3 -20z"/>
<path d="M3354 565 c8 -8 17 -15 20 -15 3 0 3 7 0 15 -4 8 -13 15 -21 15 -12
0 -12 -2 1 -15z"/>
<path d="M3060 422 c0 -6 9 -13 19 -17 11 -3 22 -13 24 -21 4 -10 5 -10 3 2
-1 18 -46 53 -46 36z"/>
<path d="M3325 150 c3 -5 8 -10 11 -10 2 0 4 5 4 10 0 6 -5 10 -11 10 -5 0 -7
-4 -4 -10z"/>
<path d="M588 987 c-7 -8 -22 -32 -31 -53 -13 -28 -31 -46 -65 -64 -64 -34
-65 -53 -3 -84 39 -20 55 -36 73 -73 13 -25 29 -48 35 -50 6 -2 26 20 43 49
23 38 46 61 78 79 25 13 47 29 49 35 2 7 -20 26 -50 43 -40 23 -59 41 -72 71
-24 52 -39 65 -57 47z m71 -132 c11 -3 24 -12 31 -20 9 -11 5 -17 -19 -29 -16
-9 -38 -29 -48 -46 -9 -16 -20 -30 -23 -30 -3 0 -14 15 -24 34 -10 18 -29 39
-42 45 -33 14 -30 25 11 50 19 11 35 26 35 34 0 7 5 18 12 25 10 10 16 5 30
-22 10 -19 26 -37 37 -41z"/>
</g>
</svg>
